<svg xmlns="http://www.w3.org/2000/svg" viewBox="0 0 5651.19 1966.00" role="img" aria-label="Revora Health">
<title>Revora Health</title>
<path d="M1171.59 489.2Q1171.59 590.4 1126.89 671.1Q1082.19 751.8 1000.79 804.6Q919.39 857.4 806.79 877Q786.79 880.2 765.49 882.8Q744.19 885.4 722.29 886.5Q700.39 887.6 677.19 887.6Q598.79 887.6 540.19 877.8Q481.59 868 437.19 848.7Q392.79 829.4 356.39 800.4L365.99 785.2Q399.59 812.6 437.49 828.9Q475.39 845.2 517.29 852.2Q559.2 859.2 604.4 859.2Q733.6 859.2 811.6 771.3Q889.6 683.4 889.6 501.6Q889.6 361.8 838.3 252.8Q787 143.8 698.8 81.5Q610.6 19.2 499.59 19.2H411.59V1332.8Q411.59 1352 420.79 1360.9Q429.99 1369.8 450.39 1373.6L531.19 1386Q537.79 1386.6 540.49 1388.2Q543.19 1389.8 543.19 1393.6Q543.19 1400 533.59 1400H9.6Q4.8 1400 2.4 1397.9Q0 1395.8 0 1393.6Q0 1387.8 12 1386L92.8 1373.6Q113.2 1369.8 122.4 1360.9Q131.6 1352 131.6 1332.8V54Q131.6 42 122.1 35.6Q112.6 29.2 92.8 26.4L12 14Q0 12.2 0 6.4Q0 3.8 2.4 1.9Q4.8 0 9.6 0H498.39Q709.39 0 859.99 60.5Q1010.59 121 1091.09 230.9Q1171.59 340.8 1171.59 489.2ZM614 870 874.39 840.4 1163.59 1321.6Q1184.59 1355.2 1208.19 1367.3Q1231.79 1379.4 1261.19 1386Q1267.79 1387.8 1270.49 1388.8Q1273.19 1389.8 1273.19 1393.6Q1273.19 1395.8 1270.79 1397.9Q1268.39 1400 1263.59 1400H804.8Q795.2 1400 795.2 1393.6Q795.2 1389.8 798.2 1389.1Q801.2 1388.4 807.2 1386L849.6 1377.6Q874.2 1370.2 880.1 1355.3Q886 1340.4 868 1309.2ZM2102.19 883.2Q2102.19 891.6 2096.69 897Q2091.19 902.4 2079.79 902.4H1460.19V884.8H1847.8Q1864.2 884.8 1864.2 866Q1864.2 688.2 1816.7 603.1Q1769.2 518 1701.8 518Q1645.6 518 1604.6 556.5Q1563.59 595 1540.89 674.2Q1518.19 753.4 1518.19 874.8Q1518.19 1081 1604.59 1183.9Q1690.99 1286.8 1830.59 1286.8Q1933.99 1286.8 2005.09 1229.5Q2076.19 1172.2 2084.99 1074.4Q2085.39 1070.2 2087.29 1068.7Q2089.19 1067.2 2090.19 1067.2Q2092.79 1067.2 2094.89 1069Q2096.99 1070.8 2096.59 1076.4Q2090.99 1174.8 2039.49 1252.5Q1987.99 1330.2 1903.4 1375.1Q1818.8 1420 1713.4 1420Q1589.8 1420 1496 1365.2Q1402.2 1310.4 1349.4 1210.8Q1296.6 1111.2 1296.6 978.4Q1296.6 836.4 1350.2 729.1Q1403.8 621.8 1501.5 561.7Q1599.2 501.6 1730.6 501.6Q1844 501.6 1927.3 551.2Q2010.59 600.8 2056.39 687Q2102.19 773.2 2102.19 883.2ZM2639 1402H2540.2Q2533.2 1402 2527.8 1398.7Q2522.4 1395.4 2519.8 1388L2219.8 591.2Q2213.2 573.2 2203.9 561Q2194.6 548.8 2179.4 546L2139 537.4Q2132 535.4 2129.1 533.6Q2126.2 531.8 2126.2 528.8Q2126.2 525 2128.6 523.7Q2131 522.4 2133.8 522.4H2582.79Q2591.19 522.4 2591.19 528.8Q2591.19 531.8 2589.09 533.4Q2586.99 535 2580.79 536.6L2531.99 546Q2481.79 555.6 2471.69 570.4Q2461.59 585.2 2471.99 613.6L2700.39 1235.4L2655.2 1326.4L2896.8 641.2Q2910.8 601.4 2897.1 577.8Q2883.4 554.2 2838.2 546L2785.4 536.6Q2779.6 535 2777.3 533.4Q2775 531.8 2775 528.8Q2775 525 2777.4 523.7Q2779.8 522.4 2783.4 522.4H3039.8Q3043.6 522.4 3045.5 523.7Q3047.4 525 3047.4 528.8Q3047.4 531.8 3044.7 533.6Q3042 535.4 3034.6 537.4L3002 544.2Q2974 550.6 2955.9 571.7Q2937.8 592.8 2923 636.8L2657.4 1389.2Q2655.4 1395.8 2650.4 1398.9Q2645.4 1402 2639 1402ZM3490.6 502.4Q3622.4 502.4 3724.3 561.2Q3826.2 620 3884.6 724.3Q3943 828.6 3943 964.8Q3943 1099.2 3883.1 1201.7Q3823.2 1304.2 3718.6 1362.1Q3614 1420 3478.6 1420Q3346.8 1420 3245.3 1362.4Q3143.8 1304.8 3086.2 1202.3Q3028.6 1099.8 3028.6 964.8Q3028.6 830 3087.7 725.9Q3146.8 621.8 3251.1 562.1Q3355.4 502.4 3490.6 502.4ZM3540 1403.2Q3601.6 1397.4 3641.1 1343.4Q3680.6 1289.4 3694.2 1188.2Q3707.8 1087 3690.6 940.8Q3673.4 793.4 3637.3 697.7Q3601.2 602 3549.4 557.7Q3497.6 513.4 3432.6 519.8Q3368.8 526.2 3329.5 581.2Q3290.19 636.2 3278.39 737Q3266.59 837.8 3283.19 982.4Q3300.39 1126.6 3336.99 1222.5Q3373.59 1318.4 3425.59 1363.7Q3477.6 1409 3540 1403.2ZM4334.59 900.8Q4334.59 769.2 4372.69 680.7Q4410.79 592.2 4470.39 547.3Q4529.99 502.4 4594.19 502.4Q4668.59 502.4 4708.59 548.8Q4748.59 595.2 4748.59 681.2Q4748.59 755.6 4713.79 792Q4678.99 828.39 4626.8 828.39Q4578.2 828.39 4554.4 801.3Q4530.6 774.2 4528.2 720.8L4527 689.2Q4526.4 658.4 4514.4 642.4Q4502.4 626.4 4473 626.4Q4441.2 626.4 4412.3 657.2Q4383.39 688 4364.99 750.4Q4346.59 812.8 4346.59 906.8ZM4346.59 522.8V854.8V1338.8Q4346.59 1350.2 4353.19 1359Q4359.79 1367.8 4371.79 1370.4L4470.59 1386.4Q4476.19 1387.4 4477.99 1389Q4479.79 1390.6 4479.79 1393.6Q4479.79 1396.4 4477.39 1398.2Q4474.99 1400 4470.19 1400H4027Q4022.6 1400 4019.8 1397.7Q4017 1395.4 4017 1393.2Q4017 1390.6 4020.4 1388.2Q4023.8 1385.8 4029.8 1384.8L4083.8 1376.4Q4097 1373.8 4102.4 1366.5Q4107.8 1359.2 4107.8 1349.2V611.6Q4107.8 605 4105.1 600.7Q4102.4 596.4 4095 596.4H4027Q4024.2 596.4 4021.8 594.3Q4019.4 592.2 4019.4 590Q4019.4 587 4021.8 584.8Q4024.2 582.6 4029 581.6L4316.19 513.2Q4323.59 511.2 4327.69 510.6Q4331.79 510 4335.79 510Q4341.79 510 4344.19 514Q4346.59 518 4346.59 522.8ZM5320.4 1307.4V1298.2L5309.2 1308.4V664.01Q5309.2 592.4 5279.5 554Q5249.8 515.6 5194 515.6Q5131.2 515.6 5100.4 547Q5069.59 578.4 5069.59 617.6V698.8Q5069.59 748.6 5034.4 782.9Q4999.2 817.2 4944 817.2Q4905 817.2 4879.5 793.4Q4854 769.6 4854 721.6Q4854 669.4 4895.8 618.7Q4937.6 568 5019.9 534.8Q5102.2 501.6 5222.6 501.6Q5387 501.6 5468.09 570.4Q5549.19 639.2 5549.19 764.8V1283.6Q5549.19 1318.8 5561.49 1334.4Q5573.79 1350 5591.99 1350Q5609.39 1350 5623.69 1338.9Q5637.99 1327.8 5641.19 1302.4Q5641.79 1298.6 5643.29 1297.3Q5644.79 1296 5646.39 1296Q5648.99 1296 5650.09 1297.3Q5651.19 1298.6 5651.19 1302.4Q5651.19 1321 5633.89 1348.2Q5616.59 1375.4 5577.7 1396.7Q5538.8 1418 5473.6 1418Q5393.6 1418 5357 1386.9Q5320.4 1355.8 5320.4 1307.4ZM4803.6 1205.6Q4803.6 1097 4893.7 1030.7Q4983.8 964.4 5179.2 964.4Q5241 964.4 5280.3 976.5Q5319.6 988.6 5353.2 1006.8L5345.6 1014Q5311.6 997.6 5276.4 988.6Q5241.2 979.6 5197.2 979.6Q5122.4 979.6 5082.19 1029.6Q5041.99 1079.6 5041.99 1170.8Q5041.99 1258.8 5080.79 1304.6Q5119.6 1350.4 5182 1350.4Q5223.4 1350.4 5264 1330.5Q5304.6 1310.6 5331.4 1274L5342.2 1280.4Q5299 1347.4 5222.5 1382.9Q5146 1418.4 5057.6 1418.4Q4945 1418.4 4874.3 1358.8Q4803.6 1299.2 4803.6 1205.6Z" fill="#FAF7F2"/>
<path d="M847.68 1966V1728H884.47V1829.95H984.29V1728H1021.08V1966H984.29V1863.37H884.47V1966ZM1630.96 1966V1728H1780.75V1761.42H1667.75V1829.51H1771.23V1862.93H1667.75V1932.58H1782.55V1966ZM2363.75 1966 2431.66 1728H2496.06L2563.97 1966H2525.94L2510.41 1909.83H2417.31L2401.78 1966ZM2426.31 1875.97H2501.41L2466.56 1750.87H2461.16ZM3156.38 1966V1728H3193.16V1932.58H3307.68V1966ZM3926.7 1966V1761.42H3853.77V1728H4036.42V1761.42H3963.49V1966ZM4630.11 1966V1728H4666.9V1829.95H4766.73V1728H4803.51V1966H4766.73V1863.37H4666.9V1966Z" fill="#FAF7F2" fill-opacity="0.72"/>
</svg>
